<?xml version="1.0" encoding="UTF-8" standalone="no"?>
<!-- Created with Inkscape (http://www.inkscape.org/) -->

<svg
   width="1000"
   height="1000"
   viewBox="0 0 264.58333 264.58334"
   version="1.1"
   id="svg5"
   xml:space="preserve"
   xmlns="http://www.w3.org/2000/svg"
   xmlns:svg="http://www.w3.org/2000/svg"><defs
     id="defs2" /><g
     id="layer3"
     style="display:inline"><g
       id="g25815"
       transform="matrix(1.8867496,0,0,1.8867496,-65.817044,-147.89038)"><path
         id="path9384"
         style="fill:#0dfa40;fill-opacity:1;stroke-width:8.25233;stroke-linecap:round;stroke-linejoin:round"
         d="m 142.98436,168.26567 c -0.0146,0.0287 -0.0289,0.0582 -0.0441,0.0871 -0.1624,0.30972 -0.32787,0.61704 -0.4975,0.92194 -0.16968,0.30489 -0.34341,0.60801 -0.52009,0.90798 -0.17674,0.29994 -0.35687,0.59691 -0.54048,0.89184 -0.1836,0.29493 -0.37049,0.58699 -0.56089,0.87681 -0.19047,0.28982 -0.38424,0.57716 -0.58132,0.86176 -0.19712,0.28462 -0.39705,0.56745 -0.60066,0.84674 -0.20356,0.2793 -0.41106,0.55564 -0.62107,0.82953 -0.21003,0.27389 -0.42304,0.54501 -0.63935,0.81341 -0.21629,0.2684 -0.43514,0.53341 -0.65759,0.79622 -0.22247,0.2628 -0.44849,0.52299 -0.67697,0.7801 -0.22847,0.25713 -0.45976,0.51157 -0.69414,0.76292 -0.23436,0.25133 -0.47119,0.50025 -0.71134,0.74571 -0.24012,0.24547 -0.48383,0.48796 -0.72959,0.72745 -0.24576,0.2395 -0.49444,0.47575 -0.74571,0.70918 -0.25127,0.23345 -0.50519,0.46365 -0.76184,0.69092 -0.25663,0.22729 -0.51607,0.45161 -0.77796,0.67266 -0.26187,0.22103 -0.52599,0.43861 -0.793,0.65331 -0.267,0.21469 -0.53605,0.42678 -0.80802,0.63504 -0.272,0.20825 -0.54732,0.41289 -0.82417,0.61463 -0.27686,0.2017 -0.55547,0.40019 -0.83705,0.59527 -0.28158,0.19504 -0.56591,0.38651 -0.85211,0.57487 -0.28618,0.18839 -0.57433,0.37397 -0.86498,0.55554 -0.29065,0.18152 -0.58398,0.35939 -0.87895,0.53403 -0.29499,0.17466 -0.59159,0.34598 -0.89078,0.51361 -0.29922,0.1676 -0.60039,0.33159 -0.90368,0.49214 -0.30329,0.16052 -0.60827,0.31728 -0.91551,0.47066 -0.30722,0.15324 -0.61731,0.30306 -0.92837,0.44913 -0.31105,0.14618 -0.6233,0.28896 -0.93805,0.42768 -0.31477,0.13869 -0.63156,0.27386 -0.94988,0.40509 -0.31832,0.13121 -0.63887,0.2578 -0.96063,0.38145 -0.32175,0.12372 -0.64521,0.24397 -0.9703,0.35996 -0.32506,0.11602 -0.6517,0.2281 -0.97996,0.33633 -0.32824,0.10833 -0.65726,0.2123 -0.98856,0.31269 -0.33129,0.10043 -0.66509,0.19649 -0.9993,0.28904 -0.33423,0.0925 -0.66981,0.18111 -1.00683,0.26541 -0.33702,0.0844 -0.67468,0.16551 -1.01436,0.24176 -0.33966,0.0763 -0.68073,0.14784 -1.02294,0.21598 -0.3422,0.068 -0.68585,0.13162 -1.03046,0.1913 -0.3446,0.0597 -0.69002,0.11519 -1.03692,0.16655 -0.34687,0.0514 -0.69541,0.099 -1.04444,0.14181 -0.34902,0.0428 -0.69876,0.0807 -1.04979,0.11499 -0.35106,0.0343 -0.70333,0.0647 -1.05626,0.0902 -0.35294,0.0254 -0.70695,0.0468 -1.06164,0.0634 -0.35467,0.0166 -0.70961,0.0287 -1.06593,0.0366 -0.35631,0.008 -0.71348,0.0104 -1.07129,0.0104 -0.35781,-0.001 -0.71641,-0.006 -1.07559,-0.0166 -0.22016,-0.006 -0.44115,-0.0166 -0.66191,-0.0268 0.20065,0.31425 0.37862,0.63484 0.59851,0.94341 0.46309,0.64987 0.96726,1.28544 1.50863,1.90406 0.54136,0.61862 1.1203,1.21965 1.73107,1.79874 0.61074,0.57912 1.25323,1.13636 1.92445,1.66767 0.67123,0.53133 1.37143,1.03766 2.09424,1.51294 0.72282,0.47527 1.46844,0.92037 2.23395,1.33133 0.76548,0.41095 1.5507,0.78771 2.34997,1.12608 0.79927,0.33839 1.60815,0.63791 2.42304,0.89831 0.81491,0.26039 1.63554,0.48128 2.45851,0.65975 0.82298,0.1784 1.64789,0.31462 2.47141,0.40725 0.8235,0.0925 1.64525,0.14119 2.46174,0.14389 0.81646,0.002 1.62759,-0.0391 2.42948,-0.12995 0.80189,-0.0909 1.59495,-0.22954 2.3747,-0.41799 0.77975,-0.18839 1.54619,-0.4267 2.29624,-0.71672 0.75008,-0.29001 1.48352,-0.63283 2.19633,-1.02831 0.77035,-0.42743 1.51421,-0.88511 2.22964,-1.37217 0.71544,-0.48706 1.40226,-1.00334 2.05771,-1.54517 0.65544,-0.54181 1.28032,-1.10928 1.87075,-1.70095 0.5904,-0.5917 1.14627,-1.20726 1.66658,-1.84389 0.52029,-0.63663 1.00439,-1.29399 1.44952,-1.97068 0.44514,-0.67668 0.85146,-1.37273 1.21636,-2.08457 0.3649,-0.71184 0.68853,-1.44027 0.96814,-2.18236 0.27962,-0.74209 0.51563,-1.49765 0.70489,-2.26509 0.18922,-0.76744 0.33591,-1.54991 0.43626,-2.34567 0.10043,-0.79578 0.1547,-1.60541 0.15678,-2.42843 0.002,-0.82301 -0.0476,-1.65878 -0.15262,-2.50793 -0.10501,-0.84916 -0.26522,-1.71108 -0.48675,-2.58532 -0.22153,-0.87419 -0.50382,-1.76125 -0.85103,-2.65943 -0.3472,-0.89817 -0.76005,-1.80717 -1.24215,-2.72821 -0.48207,-0.92103 -1.03398,-1.85309 -1.66013,-2.7959 -0.022,-0.0333 -0.052,-0.0678 -0.0742,-0.10106 z" /><path
         id="path20504"
         style="fill:#fcdc03;fill-opacity:1;stroke-width:8.25233;stroke-linecap:round;stroke-linejoin:round"
         d="m 106.38075,105.70913 c -0.3104,-0.61039 -0.65274,-1.2067 -1.03798,-1.78047 -0.41079,-0.61186 -0.86209,-1.20264 -1.34959,-1.76976 -0.48751,-0.56709 -1.01107,-1.11088 -1.56666,-1.63004 -0.5556,-0.51917 -1.14393,-1.013717 -1.75899,-1.481774 -0.61507,-0.468036 -1.257474,-0.909019 -1.923399,-1.322722 -0.665926,-0.413703 -1.354911,-0.800001 -2.063088,-1.15619 -0.708156,-0.356188 -1.435193,-0.682352 -2.176983,-0.977824 -0.741779,-0.295473 -1.498315,-0.560358 -2.265094,-0.791912 -0.766773,-0.231554 -1.544259,-0.429755 -2.327417,-0.594209 -0.783151,-0.164475 -1.571959,-0.294828 -2.362872,-0.38898 -0.79091,-0.09419 -1.583568,-0.152415 -2.373617,-0.173 -0.790051,-0.02079 -1.576933,-0.0042 -2.357504,0.05261 -0.780567,0.05593 -1.555279,0.150959 -2.317745,0.286905 -0.762466,0.135988 -1.513231,0.312856 -2.248973,0.531872 -0.735746,0.219036 -1.456164,0.480179 -2.156567,0.785486 -0.700402,0.305308 -1.380852,0.65503 -2.037291,1.049811 -0.679371,0.408567 -1.341333,0.845933 -1.982495,1.309831 -0.641163,0.463919 -1.261424,0.953663 -1.857848,1.466737 -0.596428,0.513053 -1.168711,1.049329 -1.713865,1.605319 -0.54515,0.55599 -1.063191,1.13188 -1.550536,1.72462 -0.48734,0.59273 -0.943792,1.20235 -1.366789,1.8256 -0.422998,0.62326 -0.812668,1.2597 -1.164783,1.90729 -0.352118,0.64756 -0.666581,1.30604 -0.941285,1.97174 -0.274698,0.6657 -0.509839,1.33927 -0.700584,2.01689 -0.190736,0.67761 -0.34464,1.3595 -0.457751,2.04695 -0.113115,0.68747 -0.18479,1.38024 -0.210605,2.07814 -0.0258,0.69789 -0.0056,1.40145 0.06554,2.11035 0.07115,0.70891 0.19292,1.42318 0.370713,2.14368 0.177782,0.72049 0.411873,1.44753 0.705958,2.1802 0.294092,0.73267 0.648023,1.47131 1.068078,2.21675 0.420053,0.74542 0.905659,1.49666 1.461349,2.2554 0.55569,0.75877 1.18158,1.52467 1.882561,2.29735 0.0054,0.006 0.01289,0.0125 0.0183,0.0187 0.249055,-0.4415 0.501284,-0.88103 0.765057,-1.31199 0.317549,-0.51883 0.644854,-1.0302 0.983187,-1.53334 0.338336,-0.50315 0.687079,-0.99803 1.045511,-1.48499 0.358432,-0.48696 0.726771,-0.96639 1.104614,-1.43663 0.377834,-0.47026 0.765007,-0.93202 1.161553,-1.38506 0.396551,-0.45306 0.802864,-0.89706 1.217434,-1.33241 0.414574,-0.43535 0.838183,-0.86155 1.270089,-1.27868 0.431899,-0.41714 0.872045,-0.82548 1.320587,-1.22388 0.448542,-0.39842 0.904455,-0.78667 1.368939,-1.16585 0.464487,-0.37921 0.937555,-0.74946 1.417295,-1.10893 0.47974,-0.35945 0.967045,-0.70843 1.461349,-1.04765 0.494304,-0.33922 0.995083,-0.66792 1.503256,-0.98641 0.508179,-0.31849 1.023811,-0.62683 1.545167,-0.92409 0.52135,-0.29724 1.048931,-0.58413 1.582769,-0.85962 0.533839,-0.27549 1.073671,-0.53977 1.619306,-0.79299 0.545632,-0.25324 1.096949,-0.49484 1.653689,-0.72531 0.556736,-0.23046 1.118774,-0.44933 1.685925,-0.65653 0.567149,-0.2071 1.139145,-0.40326 1.71601,-0.58668 0.576872,-0.1834 1.158055,-0.35449 1.743955,-0.51364 0.585888,-0.15907 1.176583,-0.30618 1.770813,-0.44054 0.594231,-0.13433 1.192578,-0.25628 1.794439,-0.36534 0.601882,-0.10896 1.207133,-0.20461 1.815939,-0.28797 0.608848,-0.0834 1.221289,-0.15366 1.836379,-0.21061 0.61508,-0.057 1.23289,-0.10085 1.85355,-0.131 0.35465,-0.0166 0.70964,-0.0304 1.06593,-0.0387 0.35629,-0.008 0.7135,-0.0104 1.07129,-0.0104 0.35779,5.4e-4 0.71641,0.006 1.07559,0.0145 0.0825,0.002 0.16552,0.006 0.24821,0.0104 z" /><path
         id="path20500"
         style="fill:#de4c0b;fill-opacity:1;stroke-width:8.25233;stroke-linecap:round;stroke-linejoin:round"
         d="m 120.95343,211.55065 c -0.72798,-0.10667 -1.45907,-0.1992 -2.17806,-0.35352 -1.10061,-0.23617 -2.18886,-0.52682 -3.25901,-0.86715 -1.07017,-0.3403 -2.12216,-0.73048 -3.15051,-1.16585 -1.02836,-0.43537 -2.03793,-0.91595 -3.0237,-1.43877 -0.98579,-0.52285 -1.94758,-1.08789 -2.8808,-1.69347 -0.93321,-0.60558 -1.83713,-1.25163 -2.70779,-1.93521 -0.87065,-0.68358 -1.70769,-1.40508 -2.50579,-2.16194 -0.79809,-0.75683 -1.557046,-1.54825 -2.272626,-2.37361 -0.715559,-0.82537 -1.387389,-1.68432 -2.010418,-2.57348 -0.623029,-0.88916 -1.197672,-1.80902 -1.718169,-2.75723 -0.260249,-0.47411 -0.507585,-0.9551 -0.740345,-1.44308 -0.232743,-0.48797 -0.451476,-0.98267 -0.655462,-1.48391 -0.208756,-0.51299 -0.399632,-1.03132 -0.573795,-1.55269 -0.0077,-0.0231 -0.01268,-0.0468 -0.02038,-0.0699 -0.06743,-0.0187 -0.135801,-0.0364 -0.203088,-0.0559 -0.345112,-0.10002 -0.688353,-0.2044 -1.02939,-0.31269 -0.341034,-0.10834 -0.679634,-0.21995 -1.0165,-0.33633 -0.336865,-0.11645 -0.67208,-0.23669 -1.004677,-0.36104 -0.332596,-0.12434 -0.662469,-0.25249 -0.990708,-0.38467 -0.32824,-0.13225 -0.655108,-0.26844 -0.978891,-0.40832 -0.323784,-0.13994 -0.644612,-0.28341 -0.963845,-0.43088 -0.319233,-0.14742 -0.636366,-0.29963 -0.950955,-0.45452 -0.31459,-0.15491 -0.627128,-0.31273 -0.936981,-0.47494 -0.309853,-0.16219 -0.616921,-0.3281 -0.921938,-0.49752 -0.305023,-0.16946 -0.607879,-0.34251 -0.907972,-0.51898 -0.300092,-0.17653 -0.597858,-0.35708 -0.892929,-0.5405 -0.295071,-0.1834 -0.586851,-0.36962 -0.876811,-0.55982 -0.289958,-0.19025 -0.578093,-0.38336 -0.862842,-0.58023 -0.284749,-0.19691 -0.566203,-0.39726 -0.845648,-0.60066 -0.279447,-0.20336 -0.556559,-0.41017 -0.830604,-0.62001 -0.274049,-0.20983 -0.545935,-0.42323 -0.814487,-0.63933 -0.26856,-0.21613 -0.534329,-0.43533 -0.797297,-0.65761 -0.262968,-0.22228 -0.522812,-0.44758 -0.780103,-0.67589 -0.257292,-0.22829 -0.511396,-0.45994 -0.762912,-0.69414 -0.251515,-0.23419 -0.50007,-0.47028 -0.745719,-0.71025 -0.245644,-0.23996 -0.48884,-0.48293 -0.728526,-0.72852 -0.239682,-0.24561 -0.475555,-0.49461 -0.709184,-0.74573 -0.233623,-0.2511 -0.464517,-0.50428 -0.691992,-0.76076 -0.227478,-0.25649 -0.452497,-0.51621 -0.673725,-0.77794 -0.221228,-0.26175 -0.438417,-0.52615 -0.65331,-0.79301 -0.21489,-0.26686 -0.42659,-0.53618 -0.635043,-0.80803 -0.208455,-0.27187 -0.413771,-0.54636 -0.615701,-0.82308 -0.201924,-0.27672 -0.401059,-0.55562 -0.596358,-0.83708 -0.195311,-0.28143 -0.387359,-0.56495 -0.575946,-0.851 -0.188595,-0.28606 -0.373753,-0.57446 -0.555526,-0.865 -0.181775,-0.29053 -0.360241,-0.583 -0.535113,-0.87787 -0.174871,-0.29489 -0.34575,-0.5917 -0.51362,-0.89079 -0.167885,-0.29909 -0.332431,-0.60049 -0.493209,-0.90367 -0.160773,-0.30319 -0.318126,-0.60835 -0.471714,-0.91549 -0.153579,-0.30714 -0.302843,-0.61635 -0.449153,-0.92732 -0.146302,-0.31096 -0.289804,-0.62446 -0.42873,-0.93913 -0.138941,-0.31468 -0.273636,-0.63055 -0.405095,-0.94881 -0.131455,-0.31824 -0.259712,-0.63892 -0.383607,-0.96061 -0.123886,-0.32169 -0.24373,-0.64422 -0.359963,-0.96922 -0.116234,-0.325 -0.228923,-0.65178 -0.337404,-0.97996 -0.108457,-0.32818 -0.213124,-0.6584 -0.313758,-0.98964 -0.100618,-0.33124 -0.196351,-0.66407 -0.289047,-0.99824 -0.0927,-0.33415 -0.181837,-0.66986 -0.266478,-1.00683 -0.08465,-0.33696 -0.165244,-0.67472 -0.241772,-1.01434 -0.07652,-0.33964 -0.148755,-0.68077 -0.217053,-1.02295 -0.06829,-0.34215 -0.13237,-0.68588 -0.192337,-1.03047 -0.05999,-0.34456 -0.116068,-0.69004 -0.167615,-1.03692 -0.05155,-0.34683 -0.09879,-0.69435 -0.141852,-1.04334 -0.04308,-0.34902 -0.08159,-0.6988 -0.116047,-1.04981 -0.03443,-0.35104 -0.0645,-0.70334 -0.09026,-1.05626 -0.02574,-0.35292 -0.04747,-0.70695 -0.06446,-1.06162 -0.01684,-0.35469 -0.02955,-0.71069 -0.03764,-1.06701 -0.0081,-0.35631 -0.01164,-0.7124 -0.01081,-1.07023 0.0011,-0.35781 0.0062,-0.71639 0.01622,-1.07559 0.01,-0.35921 0.02491,-0.71945 0.04406,-1.0799 0.01913,-0.36043 0.04252,-0.72155 0.07093,-1.08312 0.02838,-0.36156 0.06109,-0.7238 0.09885,-1.08635 0.03774,-0.36253 0.08066,-0.72508 0.127878,-1.08848 0.0472,-0.36341 0.09906,-0.72758 0.155804,-1.09171 0.09931,-0.63723 0.21215,-1.26937 0.338471,-1.89546 0.126319,-0.6261 0.266418,-1.24661 0.419066,-1.86108 0.152643,-0.61446 0.318149,-1.22223 0.496433,-1.82452 0.08326,-0.28127 0.17876,-0.55641 0.267551,-0.83492 -0.341064,-0.27178 -0.695204,-0.53311 -1.017573,-0.81985 -0.579864,-0.5158 -1.129106,-1.05701 -1.645091,-1.62575 -0.449698,-0.49569 -0.878692,-0.99674 -1.286203,-1.50219 -0.407511,-0.50544 -0.793363,-1.01514 -1.159408,-1.52905 -0.366047,-0.51391 -0.711615,-1.03164 -1.036917,-1.55267 -0.325296,-0.52106 -0.630225,-1.04516 -0.91549,-1.57204 -0.285267,-0.52688 -0.551351,-1.05673 -0.797298,-1.58813 -0.245947,-0.53141 -0.471747,-1.06428 -0.679096,-1.5989 -0.20735,-0.53461 -0.395731,-1.07095 -0.5652,-1.60748 -0.169465,-0.53653 -0.320075,-1.0736 -0.452372,-1.61071 -0.132308,-0.53711 -0.246927,-1.07431 -0.342773,-1.61071 -0.09586,-0.53638 -0.173063,-1.07204 -0.233174,-1.60641 -0.06011,-0.53436 -0.10276,-1.06679 -0.127858,-1.59781 -0.0251,-0.53102 -0.03285,-1.06071 -0.02366,-1.58707 0.0091,-0.52638 0.03566,-1.04948 0.07843,-1.56989 0.04279,-0.5204 0.101637,-1.03846 0.177283,-1.5516 0.07565,-0.51313 0.167282,-1.02234 0.275076,-1.52689 0.107813,-0.50455 0.232546,-1.00431 0.37179,-1.49896 0.132121,-0.46933 0.315361,-0.91703 0.471714,-1.37646 a 65.069654,65.069654 0 0 0 -14.60061,31.92298 65.069654,65.069654 0 0 0 54.225766,74.30643 65.069654,65.069654 0 0 0 26.020621,-1.24107 z" /><path
         id="path20496"
         style="fill:#006ae0;fill-opacity:1;stroke-width:8.25233;stroke-linecap:round;stroke-linejoin:round"
         d="m 106.83852,83.462236 a 65.069654,65.069654 0 0 0 -17.563082,1.933047 c 0.764574,0.09814 1.525284,0.220076 2.281209,0.370723 0.782964,0.15595 1.560911,0.339139 2.330639,0.550149 0.76974,0.211031 1.53198,0.450029 2.284447,0.714561 0.752446,0.264532 1.495244,0.554847 2.226398,0.871446 0.731154,0.316577 1.450746,0.659001 2.156579,1.026148 0.70582,0.367167 1.39737,0.759287 2.07381,1.175527 0.67647,0.41626 1.3373,0.856703 1.98035,1.320601 0.64306,0.463877 1.26833,0.951293 1.87398,1.461352 0.60562,0.510059 1.1916,1.043073 1.75576,1.597817 0.56416,0.554723 1.10708,1.130946 1.62574,1.728898 0.51869,0.597953 1.0137,1.217072 1.48285,1.856777 0.46916,0.639705 0.9125,1.30037 1.32811,1.980348 0.41562,0.67999 0.80354,1.37974 1.16156,2.09854 0.24311,0.48808 0.46843,0.98049 0.67696,1.47639 0.20852,0.4959 0.40013,0.99452 0.57593,1.4968 0.22052,0.63004 0.37455,1.2708 0.54693,1.90837 0.0688,0.0166 0.13869,0.0337 0.20731,0.0516 0.34924,0.0913 0.69595,0.1863 1.0412,0.28582 0.34527,0.0996 0.68928,0.20273 1.03047,0.31053 0.3412,0.10771 0.67947,0.22045 1.0165,0.33633 0.33704,0.11582 0.6719,0.23504 1.00467,0.35889 0.3328,0.12393 0.66337,0.25191 0.9918,0.38359 0.32843,0.13163 0.65489,0.26786 0.97889,0.40726 0.324,0.13932 0.64546,0.28175 0.96491,0.42874 0.31947,0.14701 0.63721,0.29792 0.95204,0.45238 0.31481,0.15449 0.62687,0.31316 0.93699,0.47493 0.31009,0.16178 0.61772,0.32638 0.92301,0.49534 0.30526,0.16905 0.60868,0.34191 0.90904,0.51792 0.30036,0.17612 0.59758,0.35538 0.89292,0.53834 0.29535,0.18298 0.58872,0.37006 0.87896,0.55984 0.29025,0.18984 0.5778,0.3827 0.86286,0.57915 0.28503,0.1965 0.56697,0.39551 0.8467,0.59852 0.27975,0.20294 0.55732,0.4095 0.83169,0.61893 0.27436,0.20941 0.54561,0.42254 0.81449,0.63825 0.26888,0.21573 0.53507,0.43466 0.79836,0.65655 0.2633,0.22188 0.52463,0.44686 0.78226,0.67478 0.25763,0.22793 0.51212,0.45818 0.76399,0.692 0.25185,0.23382 0.50078,0.47065 0.74679,0.71026 0.246,0.2396 0.48847,0.48221 0.72853,0.72745 0.24004,0.24525 0.47733,0.4928 0.71132,0.74357 0.23401,0.25076 0.46521,0.50461 0.69308,0.76076 0.22785,0.25615 0.45209,0.51546 0.67372,0.77688 0.22162,0.26141 0.44018,0.52538 0.65545,0.79193 0.21529,0.26655 0.42726,0.53543 0.63613,0.80697 0.20887,0.27154 0.41551,0.54559 0.61785,0.822 0.20232,0.27642 0.40062,0.55482 0.59635,0.83599 0.19567,0.28115 0.388,0.56524 0.57703,0.85101 0.18902,0.28578 0.37547,0.57364 0.55768,0.86391 0.18215,0.29028 0.36087,0.5822 0.53618,0.87682 0.17528,0.29462 0.34637,0.59192 0.51469,0.89078 0.16843,0.29884 0.33305,0.59966 0.49428,0.90259 0.16115,0.30294 0.31982,0.6075 0.47386,0.91443 0.15407,0.30691 0.30453,0.61654 0.45131,0.9273 0.1468,0.31077 0.28932,0.62253 0.42872,0.93698 0.13931,0.31448 0.27532,0.63077 0.40726,0.9488 0.13203,0.31807 0.26031,0.63806 0.38467,0.95957 0.12435,0.3215 0.24432,0.64544 0.36104,0.9703 0.11665,0.32481 0.22951,0.65085 0.33847,0.97888 0.10896,0.32801 0.21479,0.65746 0.31591,0.98855 0.10106,0.3311 0.19795,0.6642 0.29119,0.99823 0.0932,0.33404 0.18236,0.66892 0.26757,1.00577 0.085,0.33683 0.16572,0.67482 0.24284,1.01434 0.0769,0.33951 0.15034,0.68087 0.21921,1.02294 0.0688,0.34207 0.13286,0.68491 0.19337,1.02939 0.0605,0.34448 0.11769,0.69013 0.16968,1.03692 0.0522,0.34677 0.0994,0.6955 0.14285,1.04443 0.0434,0.34895 0.0832,0.69884 0.1181,1.04981 0.0349,0.35099 0.0651,0.70231 0.0913,1.05517 0.0262,0.35289 0.0491,0.70697 0.0665,1.06165 0.0166,0.35465 0.0301,0.71069 0.0387,1.06698 0.008,0.35632 0.0125,0.71242 0.0125,1.07023 -3.5e-4,0.35783 -0.006,0.71639 -0.0146,1.0756 -0.0104,0.35922 -0.0233,0.71942 -0.042,1.07989 -0.0187,0.36048 -0.042,0.72153 -0.0699,1.08313 -0.0279,0.36159 -0.0605,0.72373 -0.0977,1.08634 -0.0372,0.36259 -0.079,0.72608 -0.1258,1.08957 -0.0466,0.36346 -0.0975,0.72749 -0.15366,1.09171 a 4.126165,4.126165 0 0 1 -0.0333,0.0237 4.126165,4.126165 0 0 1 0.0125,0.1021 c -0.0572,0.36405 -0.11873,0.72591 -0.18485,1.08634 -0.0661,0.36043 -0.13682,0.71887 -0.21168,1.0756 -0.0749,0.35673 -0.15387,0.71192 -0.23748,1.06484 -0.0703,0.29709 -0.14514,0.59213 -0.22134,0.88648 0.3115,0.34511 0.63716,0.68015 0.92837,1.04014 0.47085,0.58205 0.92083,1.16725 1.34961,1.7547 0.42876,0.58746 0.83662,1.17684 1.22387,1.76866 0.38728,0.59182 0.75399,1.18534 1.10032,1.78049 0.34633,0.59514 0.67185,1.19166 0.97783,1.78907 0.30595,0.59743 0.59235,1.1958 0.85853,1.79446 0.26617,0.59866 0.51232,1.19773 0.73926,1.7966 0.22696,0.59885 0.43496,1.19751 0.62324,1.79552 0.18839,0.59802 0.35698,1.1962 0.50717,1.79232 0.15013,0.5961 0.28166,1.19052 0.39434,1.78369 0.1127,0.59319 0.2069,1.18484 0.2826,1.77404 0.0757,0.5892 0.13266,1.1759 0.17196,1.76007 0.0393,0.58416 0.0609,1.16585 0.0645,1.74395 0.004,0.57809 -0.0104,1.15255 -0.043,1.72353 -0.0316,0.57098 -0.0809,1.13814 -0.14722,1.70097 -0.0663,0.56284 -0.14991,1.12155 -0.25035,1.67517 -0.10043,0.55364 -0.21737,1.1028 -0.35138,1.64619 -0.13391,0.54337 -0.28348,1.07987 -0.44808,1.61071 -0.13827,0.44566 -0.29333,0.88413 -0.45237,1.32058 A 65.069654,65.069654 0 0 0 169.278,158.62192 l 0.0301,-0.19337 A 65.069654,65.069654 0 0 0 114.97064,84.204827 65.069654,65.069654 0 0 0 106.83758,83.46234 Z" /><path
         id="path20246"
         style="fill:#ca00f5;fill-opacity:1;stroke-width:8.25233;stroke-linecap:round;stroke-linejoin:round"
         d="m 139.21766,153.37388 c 0.0649,-0.45714 0.12392,-0.91382 0.17071,-1.36895 0.0605,-0.5878 0.10688,-1.17388 0.13744,-1.75792 0.0308,-0.584 0.0462,-1.16559 0.0474,-1.74501 0,-0.57943 -0.0125,-1.15599 -0.0395,-1.72998 -0.0274,-0.57402 -0.069,-1.14501 -0.12476,-1.71279 -0.0555,-0.56778 -0.12517,-1.13269 -0.20845,-1.69344 -0.0832,-0.56074 -0.17986,-1.11802 -0.29009,-1.67089 -0.1102,-0.55289 -0.23311,-1.1009 -0.36964,-1.6451 -0.13661,-0.54422 -0.28686,-1.08456 -0.44915,-1.6193 -0.1624,-0.53472 -0.33687,-1.06372 -0.52437,-1.58815 -0.18755,-0.52442 -0.3875,-1.04367 -0.59959,-1.55698 -0.21211,-0.51332 -0.43658,-1.02122 -0.67266,-1.5226 -0.23609,-0.50137 -0.48407,-0.99635 -0.74357,-1.485 -0.2595,-0.48862 -0.53004,-0.97123 -0.81233,-1.44629 -0.28229,-0.47509 -0.57662,-0.94263 -0.88112,-1.40332 -0.30449,-0.4607 -0.61949,-0.91378 -0.94557,-1.35928 -0.3261,-0.44551 -0.66295,-0.88357 -1.01006,-1.31307 -0.3471,-0.42949 -0.70485,-0.85095 -1.07237,-1.26363 -0.36752,-0.41266 -0.74521,-0.81703 -1.13255,-1.21206 -0.38733,-0.39505 -0.78401,-0.78068 -1.19056,-1.15727 -0.40655,-0.37659 -0.82235,-0.74407 -1.24753,-1.10138 -0.42518,-0.35733 -0.86016,-0.70396 -1.30338,-1.0412 -0.44321,-0.33725 -0.89543,-0.66472 -1.35606,-0.98105 -0.46065,-0.31635 -0.92904,-0.62195 -1.40654,-0.91657 -0.47747,-0.29464 -0.96335,-0.57784 -1.45707,-0.84994 -0.49371,-0.27212 -0.99602,-0.5335 -1.50539,-0.78227 -0.50935,-0.24877 -1.02613,-0.48564 -1.55053,-0.71025 -0.52441,-0.22461 -1.05574,-0.43647 -1.5946,-0.63611 -0.10604,-0.0393 -0.21363,-0.0755 -0.32021,-0.11395 -0.002,0.45646 -0.0104,0.91123 -0.0258,1.36358 -0.0187,0.50224 -0.0445,1.00201 -0.0784,1.49789 -0.0339,0.49586 -0.0757,0.98834 -0.12351,1.47638 -0.0478,0.48804 -0.1023,0.9718 -0.16219,1.4506 -0.0599,0.47881 -0.12559,0.95238 -0.19545,1.42052 -0.0701,0.46814 -0.1441,0.93116 -0.22243,1.38722 -0.0784,0.45604 -0.16032,0.90488 -0.24499,1.34745 -0.0846,0.44254 -0.17258,0.8792 -0.26326,1.30769 -0.0907,0.4285 -0.18402,0.84955 -0.27938,1.26256 -0.19046,0.82602 -0.38844,1.61915 -0.58884,2.3747 -0.20045,0.75552 -0.40375,1.47324 -0.6028,2.14688 -0.19899,0.67366 -0.39376,1.30328 -0.58024,1.88365 -0.18651,0.58036 -0.36488,1.11125 -0.52758,1.58492 -0.16281,0.47367 -0.31005,0.89058 -0.43519,1.24215 -0.12517,0.35157 -0.24791,0.72716 -0.32235,0.94988 -0.0372,0.11145 -0.0628,0.18381 -0.0699,0.1967 -0.006,0.0125 0.004,-0.0345 0.0387,-0.16447 l -7.97204,-2.13616 c 0.0568,-0.21207 0.10438,-0.37665 0.14826,-0.51575 0.0441,-0.13911 0.0846,-0.25289 0.12455,-0.35998 0.0803,-0.21415 0.16135,-0.40453 0.27938,-0.73604 0.11789,-0.3315 0.25315,-0.71599 0.40079,-1.14868 0.14763,-0.43265 0.30738,-0.91397 0.47602,-1.43877 0.16863,-0.5248 0.34529,-1.09358 0.52436,-1.69989 0.17903,-0.60633 0.36133,-1.25038 0.54048,-1.92554 0.17924,-0.67518 0.35548,-1.3812 0.52437,-2.11252 0.0844,-0.36567 0.16717,-0.73695 0.24714,-1.11429 0.0798,-0.37731 0.15699,-0.76018 0.23102,-1.14758 0.074,-0.38742 0.14472,-0.77943 0.21061,-1.17446 0.0659,-0.39503 0.12684,-0.79381 0.18381,-1.19487 0.0568,-0.40104 0.10875,-0.80443 0.15575,-1.20992 0.047,-0.40547 0.0894,-0.81233 0.1258,-1.22065 0.0362,-0.40831 0.0667,-0.81755 0.0913,-1.22709 0.0247,-0.40957 0.0437,-0.82007 0.0559,-1.22926 0.0125,-0.40919 0.0187,-0.81771 0.0166,-1.22495 -0.001,-0.40724 -0.0104,-0.81268 -0.0247,-1.21636 -0.008,-0.19588 -0.0225,-0.38975 -0.0333,-0.58454 -0.54014,-0.0539 -1.07913,-0.0961 -1.61609,-0.12456 -0.584,-0.031 -1.16559,-0.0478 -1.74501,-0.0495 -0.57945,-0.002 -1.15599,0.0125 -1.72998,0.0387 -0.50227,0.0237 -1.00247,0.058 -1.50003,0.10314 -0.49756,0.0453 -0.99271,0.10126 -1.48499,0.16759 -0.492305,0.0665 -0.982403,0.14368 -1.468882,0.23103 -0.48648,0.0873 -0.969404,0.18465 -1.449541,0.29227 -0.480117,0.10771 -0.956948,0.22586 -1.430182,0.35353 -0.473234,0.12767 -0.942913,0.26534 -1.408705,0.4126 -0.46579,0.14722 -0.927255,0.30417 -1.385061,0.47064 -0.457801,0.16634 -0.912157,0.34232 -1.361421,0.52761 -0.449255,0.18526 -0.89436,0.37978 -1.334556,0.58345 -0.440166,0.20378 -0.874976,0.4166 -1.305539,0.63827 -0.430547,0.22168 -0.856136,0.45163 -1.276536,0.69092 -0.420376,0.23929 -0.835719,0.48709 -1.245372,0.74357 -0.409667,0.25649 -0.81368,0.52183 -1.212058,0.79514 -0.398399,0.27328 -0.791091,0.55486 -1.177679,0.84458 -0.386566,0.28969 -0.766921,0.58722 -1.141143,0.89292 -0.374215,0.30573 -0.742208,0.61998 -1.103535,0.94129 -0.361304,0.32132 -0.7159,0.64988 -1.063773,0.98642 -0.347853,0.33651 -0.689071,0.68127 -1.022944,1.03261 -0.333861,0.35132 -0.660642,0.70984 -0.979964,1.07559 -0.319304,0.36578 -0.631667,0.73773 -0.935914,1.1175 -0.304224,0.37977 -0.600038,0.7671 -0.888627,1.16049 -0.288588,0.39339 -0.570011,0.79362 -0.842425,1.20023 -0.272415,0.40659 -0.536232,0.81951 -0.791921,1.23893 -0.255674,0.41942 -0.503008,0.8447 -0.741423,1.27654 -0.06257,0.11332 -0.123429,0.22851 -0.184811,0.34275 0.146697,0.0707 0.288474,0.14223 0.438408,0.21276 0.335792,0.15803 0.680035,0.31535 1.031541,0.47172 0.351507,0.15636 0.711197,0.31185 1.077745,0.46635 0.366546,0.15449 0.739798,0.30759 1.120726,0.4599 0.380927,0.15221 0.769069,0.30365 1.16371,0.45344 0.789276,0.29957 1.60548,0.5945 2.445612,0.88218 0.840125,0.28769 1.703133,0.57102 2.586373,0.85102 0.883242,0.28003 1.786675,0.55573 2.707794,0.82953 0.921125,0.27381 1.859332,0.54543 2.813103,0.8145 0.953767,0.26908 1.923245,0.53578 2.904429,0.8016 1.962372,0.53162 3.974516,1.0586 6.015189,1.58598 2.040652,0.52738 4.109982,1.05539 6.187082,1.59029 2.0771,0.53491 4.16298,1.0667 6.24083,1.60749 1.03893,0.2704 2.07633,0.54312 3.10859,0.81986 1.03226,0.27674 2.05964,0.55717 3.08065,0.8435 1.02103,0.28634 2.03568,0.57872 3.04091,0.87789 1.00521,0.29917 2.00125,0.6056 2.98608,0.92087 0.98486,0.31525 1.95852,0.63892 2.91842,0.9735 0.47993,0.16739 0.95627,0.33766 1.4291,0.51041 0.47286,0.1728 0.94244,0.34792 1.40765,0.52651 0.46516,0.17861 0.92594,0.35995 1.38289,0.54478 0.45696,0.18486 0.91006,0.37262 1.3582,0.56412 0.44814,0.19151 0.89149,0.38705 1.33027,0.58563 0.43876,0.19857 0.87242,0.40106 1.30124,0.6071 0.4288,0.20606 0.85286,0.41576 1.27116,0.62966 0.41828,0.21392 0.83065,0.43219 1.23784,0.65441 0.4072,0.22219 0.80899,0.44819 1.20454,0.67908 0.29368,0.17134 0.58015,0.34794 0.86716,0.52437 z" /><path
         id="path20242"
         style="fill:#ca00f5;fill-opacity:1;stroke-width:8.25233;stroke-linecap:round;stroke-linejoin:round"
         d="m 71.530237,139.86283 c -0.02306,0.09 -0.04747,0.17923 -0.06984,0.26971 -0.123304,0.49795 -0.236276,1.00105 -0.338477,1.50863 -0.102095,0.50757 -0.193378,1.01977 -0.274002,1.53656 -0.09211,0.59064 -0.168425,1.1799 -0.229946,1.7676 -0.06155,0.5877 -0.108084,1.17396 -0.139689,1.75792 -0.03163,0.58396 -0.0482,1.16561 -0.05051,1.74502 -0.0023,0.5794 0.0104,1.15594 0.03764,1.72998 0.02664,0.57404 0.06673,1.14602 0.121432,1.71386 0.05469,0.56784 0.12397,1.13155 0.206311,1.69239 0.08234,0.56083 0.178594,1.11892 0.287968,1.67194 0.109373,0.55302 0.231768,1.10177 0.367486,1.64616 0.13578,0.54439 0.284425,1.08439 0.445928,1.61932 0.161564,0.53495 0.335514,1.06453 0.522219,1.58921 0.186724,0.52466 0.386111,1.04447 0.597437,1.55806 0.211297,0.51357 0.434105,1.02091 0.669423,1.52259 0.235317,0.5017 0.48269,0.99708 0.741423,1.48607 0.258733,0.48898 0.529701,0.97192 0.811264,1.44738 0.281541,0.47546 0.574115,0.94329 0.877882,1.4044 0.303769,0.46111 0.618041,0.91546 0.94343,1.36142 0.325417,0.44595 0.661468,0.88419 1.007906,1.31415 0.346433,0.42999 0.703345,0.85153 1.070222,1.26471 0.366876,0.41319 0.743684,0.81757 1.130399,1.21312 0.386709,0.39558 0.783526,0.78225 1.189496,1.15942 0.405966,0.37714 0.821823,0.74454 1.246445,1.10246 0.424619,0.35791 0.858577,0.70659 1.301243,1.04444 0.442693,0.33789 0.893744,0.6651 1.3539,0.98211 0.460155,0.31699 0.928459,0.62338 1.405475,0.91871 0.477019,0.29533 0.962702,0.57928 1.455976,0.85211 0.493302,0.27281 0.994279,0.5349 1.503261,0.7844 0.508954,0.24952 1.02648,0.48702 1.550535,0.7124 0.159277,0.0684 0.320813,0.1337 0.481387,0.19982 -0.0027,-0.1075 -0.01019,-0.215 -0.01185,-0.32235 -0.0083,-0.53998 -0.0058,-1.0794 0.0064,-1.61716 0.01227,-0.53775 0.03356,-1.07349 0.06448,-1.60749 0.03092,-0.53401 0.07165,-1.06586 0.11927,-1.59459 0.04764,-0.52873 0.102095,-1.05439 0.164413,-1.57632 0.0623,-0.52195 0.132391,-1.04014 0.207392,-1.55375 0.07498,-0.51364 0.154993,-1.02312 0.240692,-1.52692 0.08569,-0.50378 0.176369,-1.00221 0.270777,-1.49464 0.09442,-0.49244 0.193294,-0.97859 0.29442,-1.45813 0.101138,-0.47955 0.204689,-0.95214 0.310535,-1.41731 0.105859,-0.46514 0.214699,-0.92386 0.325583,-1.37431 0.110891,-0.45044 0.224116,-0.89319 0.338471,-1.32702 0.228722,-0.86767 0.462989,-1.69998 0.696304,-2.48967 0.233301,-0.7897 0.465458,-1.53645 0.690919,-2.23286 0.225462,-0.69641 0.443791,-1.34206 0.649,-1.92985 0.20523,-0.58778 0.396964,-1.11786 0.569507,-1.5817 0.172584,-0.46383 0.325997,-0.86171 0.453439,-1.18625 0.254884,-0.64911 0.407236,-1.00469 0.407236,-1.00469 l 7.586131,3.24506 c 0,0 -0.13474,0.31574 -0.35995,0.89292 -0.1127,0.28859 -0.24815,0.64237 -0.40081,1.05518 -0.15262,0.41283 -0.32215,0.88394 -0.50395,1.40764 -0.18173,0.52368 -0.37588,1.10021 -0.57595,1.72137 -0.20003,0.62118 -0.40607,1.2869 -0.61355,1.99216 -0.20751,0.70529 -0.41599,1.44931 -0.61999,2.22534 -0.20398,0.77603 -0.40347,1.5843 -0.59315,2.41768 -0.0948,0.41669 -0.18547,0.83886 -0.27291,1.26579 -0.0873,0.42692 -0.17134,0.85861 -0.25037,1.29371 -0.079,0.43512 -0.15387,0.87403 -0.22351,1.31522 -0.0697,0.44121 -0.13391,0.88502 -0.19338,1.33027 -0.0595,0.44522 -0.11394,0.89166 -0.16218,1.33886 -0.0482,0.44718 -0.0907,0.89498 -0.12684,1.34206 -0.0362,0.44709 -0.0659,0.89396 -0.0892,1.33886 -0.0233,0.44491 -0.0401,0.88747 -0.0495,1.3281 -0.008,0.44065 -0.0104,0.87875 -0.006,1.31308 0.006,0.43433 0.0187,0.86564 0.0397,1.29157 0.0212,0.42593 0.0501,0.8471 0.0882,1.26257 0.006,0.0719 0.0166,0.14119 0.0247,0.21276 0.39042,0.0545 0.78002,0.105 1.16908,0.14617 0.58766,0.062 1.17291,0.10875 1.75685,0.14077 0.58395,0.032 1.16667,0.0491 1.74609,0.0516 0.57941,0.002 1.1559,-0.008 1.72998,-0.0353 0.57406,-0.0262 1.14488,-0.0672 1.71278,-0.12143 0.56791,-0.0543 1.13251,-0.12226 1.69347,-0.20419 0.5609,-0.0819 1.1188,-0.17799 1.67195,-0.28691 0.55312,-0.10895 1.10164,-0.23109 1.64616,-0.36641 0.54451,-0.13537 1.08422,-0.28373 1.61932,-0.44486 0.53509,-0.16114 1.06544,-0.33481 1.59029,-0.52114 0.52486,-0.18631 1.04428,-0.3854 1.55806,-0.59635 0.51378,-0.21093 1.02176,-0.43341 1.52367,-0.66836 0.5019,-0.23496 0.99791,-0.48196 1.48713,-0.74034 0.4892,-0.2584 0.97167,-0.52898 1.44738,-0.81019 0.47569,-0.28121 0.94518,-0.57338 1.40656,-0.87681 0.46138,-0.30346 0.91519,-0.61729 1.36142,-0.94235 0.44624,-0.32511 0.88494,-0.66179 1.31519,-1.00791 0.4303,-0.34613 0.85228,-0.70257 1.26579,-1.06915 0.4135,-0.36659 0.81832,-0.74288 1.21423,-1.12933 0.39592,-0.38644 0.78297,-0.78272 1.16047,-1.18842 0.3775,-0.40569 0.74525,-0.821 1.10354,-1.24537 0.35827,-0.42437 0.70726,-0.8577 1.04551,-1.30016 0.33822,-0.44244 0.6658,-0.89399 0.98319,-1.35391 0.31736,-0.45993 0.62407,-0.92865 0.91979,-1.40546 0.2957,-0.47681 0.57994,-0.96179 0.85317,-1.45491 0.2732,-0.49309 0.53557,-0.9934 0.78548,-1.50219 0.24992,-0.50879 0.48769,-1.02554 0.71348,-1.54945 0.0451,-0.105 0.088,-0.21142 0.13225,-0.31699 -0.26965,-0.1809 -0.54647,-0.36072 -0.83169,-0.5394 -0.29816,-0.18672 -0.60415,-0.37224 -0.91871,-0.55662 -0.31456,-0.18443 -0.63781,-0.36712 -0.96814,-0.54908 -0.33034,-0.18194 -0.66783,-0.36305 -1.01327,-0.54262 -0.34546,-0.17966 -0.69849,-0.35792 -1.0584,-0.53512 -0.35993,-0.17716 -0.72656,-0.35274 -1.10032,-0.52759 -0.37378,-0.17487 -0.75417,-0.3486 -1.14115,-0.52114 -0.38697,-0.17258 -0.78137,-0.34446 -1.1809,-0.51469 -0.79906,-0.34049 -1.62164,-0.67647 -2.4671,-1.00792 -0.84545,-0.33144 -1.71361,-0.65844 -2.60034,-0.98102 -0.88673,-0.32261 -1.79242,-0.64027 -2.71531,-0.95419 -0.92289,-0.31391 -1.86241,-0.62402 -2.81633,-0.92946 -0.95393,-0.30543 -1.92244,-0.60651 -2.90228,-0.90367 -0.97984,-0.29716 -1.97151,-0.58993 -2.97213,-0.87895 -1.00063,-0.28905 -2.01062,-0.57421 -3.02694,-0.85534 -1.01629,-0.28112 -2.03876,-0.55827 -3.06561,-0.83166 -1.02686,-0.27339 -2.05804,-0.54329 -3.09032,-0.80913 -2.06456,-0.53167 -4.133223,-1.05892 -6.188181,-1.58921 -1.027479,-0.26516 -2.051547,-0.53063 -3.069912,-0.79838 -1.018343,-0.26773 -2.030782,-0.53788 -3.035521,-0.81019 -1.004743,-0.27229 -2.001596,-0.54643 -2.988245,-0.82522 -0.986653,-0.27882 -1.962916,-0.56161 -2.927003,-0.84889 -0.964082,-0.28726 -1.915823,-0.57911 -2.852853,-0.87681 -0.937035,-0.29767 -1.859244,-0.60111 -2.764745,-0.91118 -0.905501,-0.31007 -1.794965,-0.62488 -2.666966,-0.94666 -0.435997,-0.16094 -0.867986,-0.32398 -1.294801,-0.48891 -0.426811,-0.16489 -0.848703,-0.33103 -1.265787,-0.50072 -0.417077,-0.16967 -0.828892,-0.34274 -1.235698,-0.51792 -0.395964,-0.1705 -0.786585,-0.34365 -1.172304,-0.52008 z" /></g></g><g
     id="layer1"
     style="display:inline"><g
       id="g25807"
       transform="matrix(1.8867496,0,0,1.8867496,-65.817021,-147.89094)"><path
         style="color:#000000;fill:#222222;stroke-width:2.07933;-inkscape-stroke:none"
         d="m 82.021804,85.271251 c -4.243261,0.41938 -8.418007,1.716173 -12.216049,4.000273 -7.00098,4.210305 -12.745711,10.746736 -14.973594,18.661126 -2.227882,7.91442 -0.473839,17.1835 6.721264,25.11439 4.127872,4.55001 10.369373,7.3069 17.613365,9.78746 7.243991,2.48055 15.56871,4.53362 23.82699,6.66035 16.51655,4.25343 32.66583,9.4608 37.95991,16.00513 6.23528,7.70786 7.41902,14.77154 5.90495,20.91104 -1.51408,6.13953 -6.00039,11.54616 -12.16325,14.96548 -5.70256,3.16393 -12.71777,2.88983 -19.11195,0.18278 -6.39418,-2.70708 -11.8498,-7.86891 -14.08826,-13.36943 -2.1621,-5.31295 -1.545705,-13.42362 -0.0285,-20.09069 1.51728,-6.66708 3.67132,-11.71246 3.67132,-11.71246 l -7.5863,-3.24489 c 0,0 -2.436514,5.68338 -4.130228,13.12575 -1.693723,7.44237 -2.90968,16.82542 0.430485,25.03315 3.263812,8.02015 10.288173,14.37412 18.514953,17.85703 8.22675,3.48294 17.97289,4.07376 26.33272,-0.56449 7.89951,-4.38285 14.02756,-11.51016 16.17164,-20.20441 2.1441,-8.69423 0.0324,-18.76645 -7.50101,-28.07903 -8.47465,-10.47609 -25.70073,-14.52809 -42.31755,-18.80735 -8.308413,-2.13965 -16.492706,-4.17207 -23.213743,-6.47355 -6.721037,-2.30146 -11.89992,-5.0233 -14.173539,-7.52943 -5.607882,-6.18136 -6.415634,-11.90818 -4.88967,-17.32907 1.525965,-5.42091 5.847054,-10.559847 11.281977,-13.828342 10.503059,-6.316414 27.184795,-0.971482 32.392035,9.482852 2.53276,5.08494 2.3435,12.35701 1.15743,18.55557 -0.59304,3.09928 -1.39265,5.90539 -2.06714,8.0046 -0.33727,1.0496 -0.64528,1.91988 -0.88128,2.58292 -0.23603,0.66301 -0.32097,0.76398 -0.54826,1.61229 l 7.9721,2.13617 c -0.13911,0.51925 0.10293,-0.27967 0.35332,-0.98279 0.25029,-0.70315 0.5855,-1.66588 0.95845,-2.8266 0.74591,-2.32146 1.64148,-5.4348 2.31892,-8.97523 1.35491,-7.08083 2.01352,-15.97705 -1.87626,-23.78636 C 108.10871,90.644898 94.75151,84.013113 82.021741,85.271272 Z"
         id="path1547" /><path
         style="color:#000000;fill:#222222;stroke-width:2.07933;stroke-linecap:round;stroke-linejoin:round;-inkscape-stroke:none"
         d="m 102.92067,105.7315 c -19.861016,0.9651 -37.048149,15.78553 -40.226052,36.17705 -3.631888,23.30458 12.379718,45.24323 35.681576,48.89262 23.301876,3.64939 45.254186,-12.34592 48.921066,-35.64504 a 4.1261653,4.1261653 0 0 0 -0.008,-0.0771 4.1261653,4.1261653 0 0 0 0.0285,-0.0487 c 3.5969,-23.31 -12.44738,-45.22541 -35.75468,-48.83982 -2.91341,-0.45179 -5.80492,-0.59677 -8.64221,-0.45891 z m 0.37363,8.23202 c 2.29606,-0.10813 4.63869,0.0145 7.00149,0.38176 18.90227,2.93127 31.77994,20.52153 28.86283,39.426 a 4.1261653,4.1261653 0 0 0 0.0208,0.0771 4.1261653,4.1261653 0 0 0 -0.0324,0.0243 c -2.97385,18.89564 -20.59719,31.73723 -39.495056,28.77758 -18.89788,-2.95958 -31.747431,-20.5746 -28.801964,-39.47467 2.577285,-16.53756 16.372449,-28.45495 32.44482,-29.21212 z"
         id="path5137" /><path
         style="color:#000000;fill:#222222;stroke-width:2.07933;stroke-linecap:round;stroke-linejoin:round;-inkscape-stroke:none"
         d="M 101.62922,79.378458 C 69.518862,80.930655 41.769712,104.86303 36.629925,137.8433 c -5.874046,37.69174 19.977454,73.11618 57.664782,79.0185 37.687323,5.90233 73.128503,-19.92098 79.059123,-57.60386 a 4.1261653,4.1261653 0 0 0 -0.0125,-0.12996 4.1261653,4.1261653 0 0 0 0.0447,-0.0771 c 5.81746,-37.70053 -20.08641,-73.083409 -57.78256,-78.929168 -4.71202,-0.730717 -9.38735,-0.964932 -13.97453,-0.743193 z m 0.37769,8.236091 c 4.04595,-0.191922 8.17242,0.01664 12.33382,0.661975 33.29109,5.162637 56.02837,36.220366 50.89073,69.515326 a 4.1261653,4.1261653 0 0 0 0.0243,0.0975 4.1261653,4.1261653 0 0 0 -0.0528,0.0852 c -5.23758,33.27941 -36.34978,55.949 -69.633099,50.7364 -33.283308,-5.2126 -55.97275,-36.30932 -50.785126,-69.59654 4.53917,-29.12633 28.900412,-50.155666 57.222125,-51.49991 z"
         id="path5321" /><g
         id="path5345"
         transform="matrix(2.0793274,0,0,2.0793274,-113.32938,-160.28026)"><path
           style="color:#000000;fill:#ffffff;stroke-width:3.96875;stroke-linecap:round;stroke-linejoin:round;-inkscape-stroke:none"
           d="m 135.00963,132.25045 a 4.0144634,4.0144634 0 0 1 -4.5868,3.342 4.0144634,4.0144634 0 0 1 -3.34544,-4.58429 4.0144634,4.0144634 0 0 1 4.58178,-3.34888 4.0144634,4.0144634 0 0 1 3.35231,4.57926"
           id="path25757" /><path
           style="color:#000000;fill:#222222;stroke-linecap:round;stroke-linejoin:round;-inkscape-stroke:none"
           d="m 131.96289,125.69922 c -3.24902,-0.50385 -6.33942,1.75526 -6.8457,5.0039 -0.50629,3.24865 1.74978,6.34089 4.99804,6.84961 3.24827,0.50872 6.34431,-1.74626 6.85547,-4.99414 a 1.984375,1.984375 0 0 0 -0.002,-0.0117 1.984375,1.984375 0 0 0 0.004,-0.006 c 0.5014,-3.2494 -1.76075,-6.33796 -5.00977,-6.8418 z m -0.60742,3.92187 c 1.13053,0.17532 1.86978,1.1838 1.69531,2.31446 a 1.984375,1.984375 0 0 0 0,0.002 1.984375,1.984375 0 0 0 -0.002,0.004 c -0.17786,1.13013 -1.1881,1.86842 -2.31836,1.6914 -1.13026,-0.17701 -1.86757,-1.18796 -1.69141,-2.31836 0.17617,-1.13039 1.18588,-1.86867 2.31641,-1.69336 z"
           id="path25759" /></g></g></g></svg>
