<?xml version="1.0" standalone="no"?>
<!DOCTYPE svg PUBLIC "-//W3C//DTD SVG 20010904//EN"
 "http://www.w3.org/TR/2001/REC-SVG-20010904/DTD/svg10.dtd">
<svg version="1.0" xmlns="http://www.w3.org/2000/svg"
 width="1000.000000pt" height="1000.000000pt" viewBox="0 0 1000.000000 1000.000000"
 preserveAspectRatio="xMidYMid meet">
<metadata>
Created by potrace 1.14, written by Peter Selinger 2001-2017
</metadata>
<g transform="translate(0.000000,1000.000000) scale(0.100000,-0.100000)"
fill="#000000" stroke="none">
<path d="M4897 9934 c-1 -1 -67 -4 -147 -8 -80 -3 -165 -8 -190 -10 -25 -3
-67 -7 -94 -10 -26 -3 -65 -8 -85 -11 -20 -2 -54 -7 -76 -10 -22 -2 -80 -11
-130 -20 -49 -9 -102 -18 -117 -20 -65 -12 -302 -69 -398 -96 -449 -129 -888
-325 -1290 -576 -76 -48 -341 -231 -350 -243 -3 -3 -21 -17 -40 -30 -36 -25
-189 -152 -270 -224 -55 -49 -375 -370 -410 -411 -323 -380 -517 -669 -711
-1055 -178 -357 -323 -761 -400 -1115 -35 -162 -49 -229 -54 -269 -2 -21 -7
-46 -9 -55 -3 -9 -8 -41 -11 -71 -3 -30 -8 -68 -10 -85 -4 -28 -11 -91 -20
-180 -23 -221 -23 -660 0 -880 2 -22 7 -65 10 -95 7 -71 15 -126 35 -250 15
-97 19 -117 41 -220 11 -52 22 -104 25 -115 33 -166 137 -492 231 -725 51
-127 198 -433 260 -545 148 -264 338 -539 544 -785 109 -132 410 -439 518
-531 35 -30 69 -59 75 -64 50 -49 307 -242 441 -332 519 -347 1171 -618 1755
-728 14 -3 48 -9 75 -15 28 -5 67 -12 89 -16 21 -3 47 -7 56 -9 10 -2 40 -6
67 -10 26 -4 59 -8 73 -10 281 -40 791 -50 1060 -20 19 2 60 6 91 9 31 3 74 8
95 11 22 3 55 8 74 10 19 3 53 8 75 11 56 8 377 73 395 80 8 3 65 18 125 34
557 144 1184 451 1668 817 211 160 313 249 522 458 183 182 201 202 374 410
109 132 315 435 421 620 268 466 474 1023 566 1530 4 22 8 45 10 50 3 15 23
134 30 185 10 75 12 93 18 155 4 33 9 79 11 103 23 211 23 740 1 858 -2 11 -7
59 -11 109 -4 49 -8 92 -10 96 -2 3 -6 27 -10 55 -8 73 -29 203 -39 249 -3 11
-14 63 -25 115 -51 239 -132 505 -229 750 -25 63 -45 120 -45 125 0 6 21 40
47 77 59 84 110 200 134 305 21 91 26 259 11 338 -6 28 -12 60 -15 73 -15 74
-91 234 -146 308 -119 160 -312 291 -498 339 -91 23 -258 30 -350 15 -41 -7
-85 -13 -97 -14 -15 -1 -64 40 -166 139 -188 183 -215 208 -322 296 -432 356
-904 629 -1425 824 -214 80 -556 179 -695 201 -22 3 -42 7 -45 9 -9 6 -195 38
-285 49 -27 4 -61 9 -75 11 -14 3 -56 8 -95 11 -38 3 -81 8 -95 10 -71 9 -525
25 -533 18z"/>
</g>
</svg>
